<svg xmlns="http://www.w3.org/2000/svg" viewBox="0 0 512 512">
  <rect width="512" height="512" rx="104" fill="#16705a"/>
  <circle cx="256" cy="204" r="112" fill="#f4f6f1"/>
  <path d="M205 176c17-34 55-55 91-45 42 12 67 55 55 96-11 40-50 64-90 56 24-22 36-53 27-82-10-32-43-50-83-25z" fill="#2f6f9f"/>
  <path d="M170 323h172c23 0 42 19 42 42v14c0 24-19 43-43 43H171c-24 0-43-19-43-43v-14c0-23 19-42 42-42z" fill="#f4f6f1"/>
  <text x="256" y="390" text-anchor="middle" font-family="-apple-system, BlinkMacSystemFont, 'Segoe UI', sans-serif" font-size="86" font-weight="900" fill="#172426">K</text>
</svg>
